Coordinates
version=1
nRows=32
nColumns=22
inDegrees=yes

Units are S.I. units (second, meters, Newtons, ...)
If the header above contains a line with 'inDegrees', this indicates whether rotational values are in degrees (yes) or radians (no).

endheader
time	pelvis_tilt	pelvis_list	pelvis_rotation	pelvis_tx	pelvis_ty	pelvis_tz	hip_flexion_r	hip_adduction_r	hip_rotation_r	knee_angle_r	ankle_angle_r	subtalar_angle_r	hip_flexion_l	hip_adduction_l	hip_rotation_l	knee_angle_l	ankle_angle_l	subtalar_angle_l	lumbar_extension	lumbar_bending	lumbar_rotation
      3.84000000	      0.04398308	     -5.49783347	    -96.54012608	      0.42785337	      0.91390820	      0.73026631	      6.67042804	     -3.83645142	     -3.19912044	    -27.03423561	     18.47813486	     -6.90917513	      5.82158105	      0.45307122	     -9.29086166	    -20.10144727	      9.07142455	      0.01987266	     -9.49619000	     -2.32970046	      2.72892367
      3.85000000	      0.04150342	     -5.48821398	    -96.47253186	      0.42834354	      0.91383131	      0.73317101	      6.51171936	     -3.59495840	     -2.58666923	    -25.63912500	     18.50367422	     -5.93276501	      5.64069100	      0.48140427	     -9.39339530	    -20.11763006	      9.32591970	      0.02487461	     -9.51506939	     -2.38445805	      2.69117076
      3.86000000	      0.00824774	     -5.35239924	    -96.44986358	      0.42834002	      0.91364183	      0.73600256	      6.55459907	     -3.26520027	     -1.72753028	    -24.53796610	     18.47846134	     -5.11998928	      5.57386095	      0.43149110	     -9.48665711	    -20.10871109	      9.55308971	      0.03761523	     -9.36219215	     -2.44715973	      2.89654712
      3.87000000	     -0.06776055	     -5.20683793	    -96.26755490	      0.42844909	      0.91344781	      0.73881744	      6.55098899	     -2.89791294	     -0.88672208	    -23.58871883	     18.31163001	     -4.67562006	      5.56043274	      0.33133039	     -9.42140470	    -20.15578418	      9.78250334	      0.08888312	     -9.21709222	     -2.43678596	      2.83325595
      3.88000000	     -0.06324294	     -4.99138552	    -96.14759719	      0.42875917	      0.91304087	      0.74134892	      6.71489708	     -2.62414456	      0.21044405	    -22.89687149	     18.21697253	     -3.94438462	      5.68210553	      0.33227760	     -9.35405345	    -20.26059278	      9.98520769	      0.11169835	     -9.00259097	     -2.48294456	      3.01208078
      3.89000000	     -0.07334266	     -4.95174773	    -96.00960885	      0.42878475	      0.91289988	      0.74435310	      6.61591134	     -2.40911813	      0.91862903	    -22.33039727	     18.07564076	     -3.58982483	      5.49325504	      0.31275367	     -9.37021160	    -20.21929313	     10.21913495	      0.17499328	     -8.89762106	     -2.55040194	      3.01156185
      3.90000000	     -0.05809869	     -4.83370478	    -95.83032322	      0.42891941	      0.91268782	      0.74677709	      6.55719726	     -2.21272732	      1.88533068	    -21.72399132	     17.82030206	     -3.05213849	      5.45364690	      0.33429946	     -9.23846530	    -20.19562258	     10.35255189	      0.23389452	     -8.80484048	     -2.61071793	      3.16314457
      3.91000000	     -0.07006315	     -4.73702378	    -95.64987595	      0.42867700	      0.91253498	      0.74964918	      6.41408819	     -2.00941404	      2.77384473	    -21.18073951	     17.67034847	     -2.76823374	      5.33180809	      0.29312334	     -9.15899336	    -20.14118526	     10.54202547	      0.33500166	     -8.61641994	     -2.66909191	      3.24634532
      3.92000000	      0.01008309	     -4.55429708	    -95.53261689	      0.42889197	      0.91217600	      0.75200635	      6.50579218	     -1.95742462	      3.53982301	    -20.90097455	     17.28573615	     -2.59361709	      5.39053127	      0.39363640	     -9.08356343	    -20.15202628	     10.68741716	      0.34620799	     -8.42840014	     -2.80050995	      3.43760038
      3.93000000	      0.05324154	     -4.65846720	    -95.20619543	      0.42917603	      0.91213459	      0.75495824	      6.05438545	     -1.96778446	      3.77984366	    -20.45373528	     17.01402231	     -2.53119514	      5.09140959	      0.47089765	     -8.90072284	    -20.13643358	     10.88434805	      0.35455547	     -8.48108681	     -2.89487384	      3.32443179
      3.94000000	      0.19498803	     -4.55837562	    -94.97238011	      0.42909492	      0.91182957	      0.75774833	      5.87383237	     -2.04731707	      3.98781108	    -20.09106856	     16.61440657	     -2.54503450	      4.99421825	      0.62542082	     -8.76966796	    -20.06359129	     11.03706366	      0.36792539	     -8.29575876	     -3.07133578	      3.42168743
      3.95000000	      0.33868781	     -4.46993723	    -94.64704322	      0.42927040	      0.91140938	      0.76035901	      5.73606327	     -2.18385770	      3.80640153	    -19.93926031	     16.18249739	     -2.87629169	      4.95753790	      0.81316102	     -8.46549252	    -20.07344112	     11.19509551	      0.27106518	     -8.16570805	     -3.20137725	      3.43973253
      3.96000000	      0.45298910	     -4.53781705	    -94.39104842	      0.42911195	      0.91133341	      0.76331117	      5.40927872	     -2.35090530	      3.42554364	    -19.84413119	     15.80889611	     -3.07471146	      4.65618139	      0.94071351	     -8.35517353	    -19.99352877	     11.37150545	      0.23663102	     -8.12185386	     -3.38884513	      3.52507248
      3.97000000	      0.73692976	     -4.56996764	    -94.00012462	      0.42929311	      0.91105260	      0.76654960	      5.10407578	     -2.78492355	      2.60744644	    -19.71781839	     15.64963241	     -2.89771530	      4.34845941	      1.28632114	     -8.10678760	    -19.81600293	     11.47395445	      0.11836343	     -7.99696164	     -3.72439935	      3.55554780
      3.98000000	      0.84830565	     -4.64238605	    -93.65994496	      0.42922721	      0.91078207	      0.76929546	      4.69758564	     -2.95132004	      2.03342477	    -19.49241368	     15.38545652	     -2.86364817	      4.08604811	      1.40230920	     -7.89846226	    -19.78483722	     11.71754685	      0.12273695	     -7.97367994	     -3.89648631	      3.51474827
      3.99000000	      1.01121057	     -4.60628036	    -93.44528322	      0.42863640	      0.91043037	      0.77210628	      4.34400702	     -3.06043803	      1.61715819	    -19.16236690	     15.42877271	     -3.01750080	      3.88622478	      1.52889884	     -7.83372811	    -19.67709106	     11.90425119	      0.18233719	     -7.83397227	     -4.10722560	      3.75703262
      4.00000000	      1.10828854	     -4.65387460	    -93.17022514	      0.42860962	      0.91031838	      0.77462404	      3.79270731	     -3.18659162	      0.97365125	    -18.61081028	     15.53597969	     -3.14893990	      3.61000991	      1.63233686	     -7.69612776	    -19.55242690	     11.98181272	      0.21470981	     -7.79514051	     -4.21988250	      3.83488241
      4.01000000	      1.25296667	     -4.67788104	    -92.92565149	      0.42801358	      0.91011795	      0.77744046	      3.23903807	     -3.33344608	      0.15913309	    -18.11921445	     15.79407526	     -3.32687663	      3.30858865	      1.74589967	     -7.58589314	    -19.38031635	     12.12106803	      0.29327916	     -7.68932260	     -4.43916332	      3.98657894
      4.02000000	      1.33089059	     -4.76077106	    -92.68559566	      0.42754421	      0.91002585	      0.77963986	      2.70606110	     -3.39401580	     -0.35944880	    -17.68814512	     16.07001579	     -3.45279796	      3.04139887	      1.78882574	     -7.45610077	    -19.31754531	     12.25607952	      0.36604855	     -7.72333901	     -4.56790846	      4.04621513
      4.03000000	      1.46974985	     -4.54811006	    -92.61974338	      0.42721188	      0.90967824	      0.78186591	      2.51870284	     -3.51851723	     -0.61766364	    -17.23352596	     16.19081795	     -3.53683193	      3.05805500	      1.90408202	     -7.54695600	    -19.19748100	     12.32766042	      0.37667876	     -7.35927247	     -4.70209642	      4.28413949
      4.04000000	      1.53025061	     -4.63484699	    -92.52844062	      0.42630008	      0.90978970	      0.78449452	      1.93077440	     -3.55234847	     -1.01562816	    -16.70495739	     16.36857577	     -3.74752983	      2.64052478	      1.91661381	     -7.57400168	    -18.94352765	     12.38712487	      0.43948280	     -7.23447301	     -4.86493359	      4.53623640
      4.05000000	      1.54475421	     -4.67450947	    -92.46107498	      0.42542473	      0.90980161	      0.78681015	      1.48768983	     -3.53547876	     -1.20619074	    -16.30700846	     16.49627276	     -3.71162299	      2.35051846	      1.87727726	     -7.58787496	    -18.80063348	     12.54079838	      0.48860115	     -7.13792948	     -4.89194484	      4.84431972
      4.06000000	      1.50388028	     -4.68342617	    -92.33551534	      0.42503468	      0.90987573	      0.78865037	      1.11120649	     -3.47685638	     -1.45330815	    -15.91667808	     16.47571072	     -3.57784955	      2.16113751	      1.81654111	     -7.48141999	    -18.70742140	     12.58465610	      0.51712039	     -7.09207527	     -4.80586014	      4.92871277
      4.07000000	      1.59410241	     -4.53741449	    -92.33447273	      0.42426310	      0.90980061	      0.79135258	      0.89995163	     -3.54670785	     -1.53671465	    -15.59184080	     16.54968647	     -3.27748290	      1.97633672	      1.88285190	     -7.51716944	    -18.42553863	     12.63172404	      0.47666470	     -6.70546733	     -4.95667905	      5.16128379
      4.08000000	      1.49252525	     -4.61018713	    -92.28491275	      0.42357181	      0.91001177	      0.79333191	      0.52591907	     -3.42946402	     -1.66928077	    -15.33183624	     16.51226472	     -2.90313441	      1.70871610	      1.73613444	     -7.49556860	    -18.35351964	     12.76198440	      0.42999357	     -6.72000369	     -4.82472342	      5.37223428
      4.09000000	      1.45864326	     -4.44771031	    -92.31774378	      0.42248363	      0.90994232	      0.79550687	      0.40201716	     -3.34321534	     -1.58767609	    -15.05325234	     16.47789594	     -2.71425578	      1.66255587	      1.62706320	     -7.56525557	    -18.24223653	     12.86287903	      0.39453971	     -6.34887914	     -4.81185203	      5.47833175
      4.10000000	      1.29597660	     -4.30537089	    -92.35664592	      0.42171686	      0.90987758	      0.79708395	      0.33942068	     -3.12624110	     -1.44690993	    -14.85597787	     16.38744776	     -2.60844858	      1.71413953	      1.39307428	     -7.61658239	    -18.29285172	     12.98865337	      0.39229484	     -6.12693382	     -4.58921619	      5.68417132
      4.11000000	      1.20572412	     -4.23115640	    -92.34935998	      0.42080604	      0.90981626	      0.79896843	      0.21916042	     -2.99434249	     -1.48618377	    -14.75075936	     16.43590912	     -2.54181843	      1.61457104	      1.24303667	     -7.59676579	    -18.22566322	     13.11413428	      0.40267102	     -5.94751745	     -4.47256351	      5.85868169
      4.12000000	      1.17966864	     -4.34824715	    -92.24352593	      0.41972518	      0.90998228	      0.80138556	     -0.29331760	     -2.91050283	     -1.75710742	    -14.40846090	     16.45776313	     -2.41144863	      1.23017110	      1.14224565	     -7.60694732	    -18.06758791	     13.31634988	      0.48873674	     -5.91455825	     -4.49741869	      5.85172194
      4.13000000	      1.18566582	     -4.20648785	    -92.19241060	      0.41890680	      0.90983299	      0.80326649	     -0.49397208	     -2.85044783	     -1.79170670	    -14.02784740	     16.49039662	     -2.38075876	      1.21987002	      1.08872082	     -7.55163248	    -18.00709995	     13.35712099	      0.48381869	     -5.63015304	     -4.48652160	      5.93815316
      4.14000000	      1.07617150	     -4.24699690	    -92.14665154	      0.41828858	      0.90999259	      0.80515831	     -0.95610936	     -2.67350723	     -1.74949966	    -13.54122116	     16.40849470	     -2.44309607	      0.97868014	      0.94193943	     -7.58364149	    -17.90588963	     13.48124386	      0.49394266	     -5.56974964	     -4.33768607	      6.00149205
      4.15000000	      1.04761472	     -4.16102247	    -92.12266407	      0.41747085	      0.90987806	      0.80658146	     -1.17214731	     -2.58370637	     -1.92077021	    -13.18535290	     16.46891500	     -2.45390873	      0.96110764	      0.86549225	     -7.61523082	    -17.89328611	     13.48953531	      0.44799127	     -5.45733572	     -4.28246048	      6.03176227
